<?xml version="1.0" encoding="UTF-8"?>
<svg id="Layer_1" xmlns="http://www.w3.org/2000/svg" version="1.1" xmlns:xlink="http://www.w3.org/1999/xlink" viewBox="0 0 334 118">
  <!-- Generator: Adobe Illustrator 29.2.1, SVG Export Plug-In . SVG Version: 2.1.0 Build 116)  -->
  <defs>
    <style>
      .st0 {
        fill: none;
      }

      .st1 {
        fill: #42c83c;
      }

      .st2 {
        clip-path: url(#clippath);
      }

      .st3 {
        fill: url(#radial-gradient);
        fill-opacity: .6;
        fill-rule: evenodd;
      }
    </style>
    <clipPath id="clippath">
      <rect class="st0" y="0" width="334" height="118" rx="30" ry="30"/>
    </clipPath>
    <radialGradient id="radial-gradient" cx="-125.8" cy="477.9" fx="-125.8" fy="477.9" r="1" gradientTransform="translate(-20261.6 35576.4) rotate(44.7) scale(82.2 -83.1)" gradientUnits="userSpaceOnUse">
      <stop offset="0" stop-color="#fff"/>
      <stop offset="1" stop-color="#1e1e1e" stop-opacity="0"/>
      <stop offset="1" stop-color="#0e0e35" stop-opacity="0"/>
      <stop offset="1" stop-color="#fff" stop-opacity="0"/>
    </radialGradient>
  </defs>
  <g class="st2">
    <g>
      <rect class="st1" y="0" width="334" height="118" rx="30" ry="30"/>
      <path class="st3" d="M334.5-61.7c-6.8,6.7-15.2,16-17.8,26.5-.8,3.3-1.1,6.7-.6,10.2-.6,2.5-.8,5-.6,7.6,0,.2-.1.5-.2.7-.5,1.9-.8,3.8-.8,5.7-.3.9-.6,1.8-.8,2.7,0,.3-.1.6-.2.8-6.2,6.4-12.9,14.6-15.2,23.8-1.3,5.3-1.2,10.8,1.2,16.6,2.5,5.7,7.3,11.6,15.4,17.4,18.8,13.6,36.2,14.3,49.7,14.8,1.2,0,2.5,0,3.6.2,6.9.3,12.5,1,16.3,3.9,3.8,2.9,6.1,8.2,6.2,18h.6c-.1-9.8-2.4-15.3-6.4-18.4-4-3.1-9.8-3.7-16.7-4-1.2,0-2.4-.1-3.6-.2-13.4-.5-30.7-1.2-49.3-14.7-8-5.8-12.7-11.6-15.2-17.2-2.4-5.6-2.5-11.1-1.2-16.2,2.2-8.7,8.4-16.6,14.4-22.9h0c-.2.4-.3.7-.4,1-4.1,5.1-7.7,10.9-9.3,17.2-1.3,5.3-1.2,10.8,1.2,16.6,2.5,5.7,7.3,11.6,15.4,17.4,18.8,13.6,36.2,14.3,49.7,14.8,1.2,0,2.5,0,3.6.2,6.9.3,12.5,1,16.3,3.9,3.8,2.9,6.1,8.2,6.2,18h.6c-.1-9.8-2.4-15.3-6.4-18.4-4-3.1-9.8-3.7-16.7-4-1.2,0-2.4-.1-3.6-.2-13.4-.5-30.7-1.2-49.3-14.7-8-5.8-12.7-11.6-15.2-17.2-2.4-5.6-2.5-11.1-1.2-16.2,1.3-5.1,4-10,7.2-14.4-1.5,2.7-2.7,5.6-3.4,8.5-1.3,5.3-1.2,10.8,1.2,16.6,2.5,5.7,7.3,11.6,15.4,17.4,18.8,13.6,36.2,14.3,49.7,14.8h0s0,0,0,0h0c1.2,0,2.4,0,3.6.2,6.9.3,12.5,1,16.3,3.9,3.8,2.9,6.1,8.2,6.2,18h.6c-.1-9.8-2.4-15.3-6.4-18.4-4-3.1-9.8-3.7-16.7-4-1.2,0-2.4-.1-3.6-.2-13.4-.5-30.7-1.2-49.3-14.7-8-5.8-12.7-11.6-15.2-17.2-2.4-5.6-2.5-11.1-1.2-16.2.7-2.7,1.7-5.3,3-7.7,0,.3-.2.6-.2.8-1.3,5.3-1.2,10.8,1.2,16.6,2.5,5.7,7.3,11.6,15.4,17.4,18.8,13.6,36.2,14.3,49.7,14.8h0c1.2,0,2.5,0,3.6.2,6.9.3,12.5,1,16.3,3.9,3.8,2.9,6.1,8.2,6.2,18h.6c-.1-9.8-2.4-15.3-6.4-18.4-4-3.1-9.8-3.7-16.7-4-1.2,0-2.4-.1-3.6-.2-13.4-.5-30.7-1.2-49.3-14.7-8-5.8-12.7-11.6-15.2-17.2-2.4-5.6-2.5-11.1-1.2-16.2.3-1.2.7-2.4,1.2-3.6-.4,4,.2,8.1,2,12.3,2.5,5.7,7.3,11.6,15.4,17.4,18.8,13.6,36.2,14.3,49.7,14.8,1.2,0,2.5,0,3.6.2,6.9.3,12.5,1,16.3,3.9,3.8,2.9,6.1,8.2,6.2,18h.6c-.1-9.8-2.4-15.3-6.4-18.4-4-3.1-9.8-3.7-16.7-4-1.2,0-2.4-.1-3.6-.2-13.4-.5-30.7-1.2-49.3-14.7-8-5.8-12.7-11.6-15.2-17.2-2-4.6-2.4-9-1.8-13.3.3-.4.5-.8.8-1.2,0-.1.2-.2.3-.3.3,2.2.9,4.3,1.9,6.6,2.5,5.7,7.3,11.6,15.4,17.4,18.8,13.6,36.2,14.3,49.7,14.8,1.2,0,2.5,0,3.6.2,6.9.3,12.5,1,16.3,3.9,3.8,2.9,6.1,8.2,6.2,18h.6c-.1-9.8-2.4-15.3-6.4-18.4-4-3.1-9.8-3.7-16.7-4-1.2,0-2.4-.1-3.6-.2-13.4-.5-30.7-1.2-49.3-14.7-8-5.8-12.7-11.6-15.2-17.2-1-2.4-1.6-4.7-1.9-7,.7-.8,1.4-1.6,2.1-2.4,0,.2.1.3.2.5,2.5,5.7,7.3,11.6,15.4,17.4,18.8,13.6,36.2,14.3,49.7,14.8h0s0,0,0,0h0s0,0,0,0c1.2,0,2.4,0,3.6.2,6.9.3,12.5,1,16.3,3.9,3.8,2.9,6.1,8.2,6.2,18h.6c-.1-9.8-2.4-15.3-6.4-18.4-4-3.1-9.8-3.7-16.7-4-1.2,0-2.4-.1-3.6-.2-13.4-.5-30.7-1.2-49.3-14.7-8-5.8-12.7-11.6-15.2-17.2-.1-.3-.2-.5-.3-.8,1-1.1,2.1-2.2,3.1-3.2,2.8,4,6.8,8.1,12.4,12.2,18.8,13.6,36.2,14.3,49.7,14.8,1.2,0,2.5,0,3.6.2,6.9.3,12.5,1,16.3,3.9,3.8,2.9,6.1,8.2,6.2,18h.6c-.1-9.8-2.4-15.3-6.4-18.4-4-3.1-9.8-3.7-16.7-4-1.2,0-2.4-.1-3.6-.2-13.4-.5-30.7-1.2-49.3-14.7-5.6-4.1-9.6-8.1-12.4-12.1l.2-.2.2-.2-.4-.4c-.1.1-.2.2-.3.3,0,0,0-.1-.1-.2,1.8-1.9,3.5-3.8,5.2-5.4l-.4-.4c-1.6,1.6-3.4,3.4-5.1,5.3-.2-.4-.4-.7-.6-1.1,3-4,6.4-7.5,9.5-10.6l-.4-.4c-3,3-6.4,6.5-9.4,10.4-.3-.6-.6-1.2-.9-1.8,3.7-6.1,8.8-11.6,13.2-16l-.4-.4c-4.3,4.3-9.3,9.7-13.1,15.7-.3-.8-.6-1.6-.9-2.4,3.6-8.3,10.3-15.7,16-21.4l-.4-.4c-5.5,5.5-12.2,12.7-15.8,20.9-.2-.9-.4-1.8-.6-2.7,0-.2,0-.4.1-.6,2.6-10.3,10.9-19.5,17.7-26.2l-.4-.4c-6.6,6.6-14.7,15.5-17.6,25.6-.2-2.9,0-5.7.8-8.4,2.6-10.3,10.9-19.5,17.7-26.2l-.4-.4ZM314.6-7.7c0,.1-.1.3-.2.4,0-.1.1-.2.2-.3h0c0-.1,0,0,0,0ZM316.3-9.9c.2-.3.4-.5.6-.8,0-.2-.2-.5-.2-.7-.4.6-.8,1.2-1.1,1.8.2-.2.3-.3.5-.5l.2.2ZM320.5-13.9c-.6.6-1.2,1.3-1.9,1.9.6-.7,1.2-1.4,1.8-2h0c0,0,0,.1,0,.1ZM320.1-14.5c-.2-.3-.4-.7-.6-1-.8,1.1-1.7,2.3-2.4,3.5,0,.3.2.5.3.8.9-1.1,1.8-2.2,2.8-3.3ZM314.4-8.7h0s0-.2.1-.4c0,0,0,.1,0,.2h0ZM316.4-12.2c-.5.8-1,1.5-1.4,2.3,0-.3,0-.7,0-1,.3-.9.7-1.7,1-2.6.1.4.2.9.3,1.3ZM319.2-16.1c-.8,1.1-1.6,2.2-2.3,3.3-.1-.5-.3-1-.4-1.5.6-1.2,1.2-2.3,1.8-3.4.3.6.6,1.1.9,1.7ZM318-18.4c0,0,0-.1,0-.2-.3-.7-.5-1.3-.8-2-.4,1.1-.8,2.1-1.1,3.2,0,.7.1,1.3.2,2,.5-1.1,1.1-2.1,1.7-3.1ZM315.9-14.4c0-.4-.2-.8-.2-1.3-.2.9-.4,1.9-.5,2.8.2-.5.4-1,.7-1.5ZM316.9-21.5c-.3.8-.6,1.5-.9,2.3,0-1.4.1-2.9.4-4.3.1.7.3,1.3.5,2ZM292.3,19.8c2.7-10.5,11.1-19.7,17.8-26.5l.4.4c-6.8,6.7-15.1,15.9-17.7,26.2-1.3,5.2-1.2,10.6,1.2,16.2,2.4,5.6,7.2,11.4,15.2,17.2,18.6,13.5,35.9,14.1,49.3,14.7,1.2,0,2.5,0,3.6.2,6.9.3,12.6,1,16.7,4,4.1,3.1,6.3,8.6,6.4,18.4h-.6c-.1-9.8-2.4-15.1-6.2-18-3.9-2.9-9.4-3.6-16.3-3.9-1.2,0-2.4-.1-3.6-.2-13.4-.5-30.9-1.2-49.7-14.8-8.1-5.8-12.9-11.7-15.4-17.4-2.5-5.7-2.6-11.3-1.2-16.6ZM303.7-4.1c-6.8,6.7-15.2,16-17.8,26.5-1.3,5.3-1.2,10.8,1.2,16.6,2.5,5.7,7.3,11.6,15.4,17.4,18.8,13.6,36.2,14.3,49.7,14.8h0c1.2,0,2.5,0,3.6.2,6.9.3,12.5,1,16.3,3.9,3.8,2.9,6.1,8.2,6.2,18h.6c-.1-9.8-2.4-15.3-6.4-18.4-4-3.1-9.8-3.7-16.7-4-1.2,0-2.4-.1-3.6-.2-13.4-.5-30.7-1.2-49.3-14.7-8-5.8-12.7-11.6-15.2-17.2-2.4-5.6-2.5-11.1-1.2-16.2,2.6-10.3,10.9-19.5,17.7-26.2l-.4-.4ZM279.1,24.4c2.7-10.5,11.1-19.7,17.8-26.5l.4.4c-6.8,6.7-15.1,15.9-17.7,26.2-1.3,5.2-1.2,10.6,1.2,16.2,2.4,5.6,7.2,11.4,15.2,17.2,18.6,13.5,35.9,14.1,49.3,14.7,1.2,0,2.5,0,3.6.2,6.9.3,12.6,1,16.7,4,4.1,3.1,6.3,8.6,6.4,18.4h-.6c-.1-9.8-2.4-15.1-6.2-18-3.9-2.9-9.4-3.6-16.3-3.9-1.2,0-2.4-.1-3.6-.2-13.4-.5-30.9-1.2-49.7-14.8-8.1-5.8-12.9-11.7-15.4-17.4-2.5-5.7-2.6-11.3-1.2-16.6ZM290-.6c-6.8,6.7-15.2,16-17.8,26.5-1.3,5.3-1.2,10.8,1.2,16.6,2.5,5.7,7.3,11.6,15.4,17.4,18.8,13.6,36.2,14.3,49.7,14.8,1.2,0,2.5,0,3.6.2,6.9.3,12.5,1,16.3,3.9,3.8,2.9,6.1,8.2,6.2,18h.6c-.1-9.8-2.4-15.3-6.4-18.4-4-3.1-9.8-3.7-16.7-4-1.2,0-2.4-.1-3.6-.2-13.4-.5-30.7-1.2-49.3-14.7-8-5.8-12.7-11.6-15.2-17.2-2.4-5.6-2.5-11.1-1.2-16.2,2.6-10.3,10.9-19.5,17.7-26.2l-.4-.4ZM265.1,27.3c2.7-10.5,11.1-19.7,17.8-26.5l.4.4c-6.8,6.7-15.1,15.9-17.7,26.2-1.3,5.2-1.2,10.6,1.2,16.2,2.4,5.6,7.2,11.4,15.2,17.2,18.6,13.5,35.9,14.1,49.3,14.7,1.2,0,2.5,0,3.6.2,6.9.3,12.6,1,16.7,4,4.1,3.1,6.3,8.6,6.4,18.4h-.6c-.1-9.8-2.4-15.1-6.2-18-3.9-2.9-9.4-3.6-16.3-3.9-1.2,0-2.4-.1-3.6-.2-13.4-.5-30.9-1.2-49.7-14.8-8.1-5.8-12.9-11.7-15.4-17.4-2.5-5.7-2.6-11.3-1.2-16.6ZM275.8,2.2c-6.8,6.7-15.2,16-17.8,26.5-1.3,5.3-1.2,10.8,1.2,16.6,2.5,5.7,7.3,11.6,15.4,17.4,18.8,13.6,36.2,14.3,49.7,14.8,1.2,0,2.5,0,3.6.2,6.9.3,12.5,1,16.3,3.9,3.8,2.9,6.1,8.2,6.2,18h.6c-.1-9.8-2.4-15.3-6.4-18.4-4-3.1-9.8-3.7-16.7-4-1.2,0-2.4-.1-3.6-.2-13.4-.5-30.7-1.2-49.3-14.7-8-5.8-12.7-11.6-15.2-17.2-2.4-5.6-2.5-11.1-1.2-16.2,2.6-10.3,10.9-19.5,17.7-26.2l-.4-.4ZM250.9,30.1c2.7-10.5,11.1-19.7,17.8-26.5l.4.4c-6.8,6.7-15.1,15.9-17.7,26.2-1.3,5.2-1.2,10.6,1.2,16.2,2.4,5.6,7.2,11.4,15.2,17.2,18.6,13.5,35.9,14.1,49.3,14.7,1.2,0,2.5,0,3.6.2,6.9.3,12.6,1,16.7,4,4.1,3.1,6.3,8.6,6.4,18.4h-.6c-.1-9.8-2.4-15.1-6.2-18-3.9-2.9-9.4-3.6-16.3-3.9-1.2,0-2.4-.1-3.6-.2-13.4-.5-30.9-1.2-49.7-14.8-8.1-5.8-12.9-11.7-15.4-17.4-2.5-5.7-2.6-11.3-1.2-16.6ZM261.7,5.2c-6.8,6.7-15.2,16-17.8,26.5-1.3,5.3-1.2,10.8,1.2,16.6,2.5,5.7,7.3,11.6,15.4,17.4,18.8,13.6,36.2,14.3,49.7,14.8h0c1.2,0,2.5,0,3.6.2,6.9.3,12.5,1,16.3,3.9,3.8,2.9,6.1,8.2,6.2,18h.6c-.1-9.8-2.4-15.3-6.4-18.4-4-3.1-9.8-3.7-16.7-4-1.2,0-2.4-.1-3.6-.2-13.4-.5-30.7-1.2-49.3-14.7-8-5.8-12.7-11.6-15.2-17.2-2.4-5.6-2.5-11.1-1.2-16.2,2.6-10.3,10.9-19.5,17.7-26.2l-.4-.4ZM237.1,33.5c2.7-10.5,11.1-19.7,17.8-26.5l.4.4c-6.8,6.7-15.1,15.9-17.7,26.2-1.3,5.2-1.2,10.6,1.2,16.2,2.4,5.6,7.2,11.4,15.2,17.2,18.6,13.5,35.9,14.1,49.3,14.7,1.2,0,2.5,0,3.6.2,6.9.3,12.6,1,16.7,4,4.1,3.1,6.3,8.6,6.4,18.4h-.6c-.1-9.8-2.4-15.1-6.2-18-3.9-2.9-9.4-3.6-16.3-3.9-1.2,0-2.4-.1-3.6-.2h0c-13.4-.5-30.9-1.2-49.7-14.8-8.1-5.8-12.9-11.7-15.4-17.4-2.5-5.7-2.6-11.3-1.2-16.6ZM248.2,9.2c-6.8,6.7-15.2,16-17.8,26.5-1.3,5.3-1.2,10.8,1.2,16.6,2.5,5.7,7.3,11.6,15.4,17.4,18.8,13.6,36.2,14.3,49.7,14.8h0c1.2,0,2.5,0,3.6.2,6.9.3,12.5,1,16.3,3.9,3.8,2.9,6.1,8.2,6.2,18h.6c-.1-9.8-2.4-15.3-6.4-18.4-4-3.1-9.8-3.7-16.7-4-1.2,0-2.4-.1-3.6-.2-13.4-.5-30.7-1.2-49.3-14.7-8-5.8-12.7-11.6-15.2-17.2-2.4-5.6-2.5-11.1-1.2-16.2,2.6-10.3,10.9-19.5,17.7-26.2l-.4-.4Z"/>
    </g>
  </g>
</svg>