<?xml version="1.0" encoding="UTF-8"?>
<svg id="Layer_1" xmlns="http://www.w3.org/2000/svg" version="1.1" xmlns:xlink="http://www.w3.org/1999/xlink" viewBox="0 0 392.1 198.1">
  <!-- Generator: Adobe Illustrator 29.2.1, SVG Export Plug-In . SVG Version: 2.1.0 Build 116)  -->
  <defs>
    <style>
      .st0 {
        display: none;
      }

      .st0, .st1 {
        fill: #fbfbfb;
      }

      .st2 {
        fill: none;
      }

      .st3 {
        fill: #42c83c;
      }

      .st4 {
        clip-path: url(#clippath);
      }

      .st5 {
        fill: url(#radial-gradient);
        fill-opacity: .6;
        fill-rule: evenodd;
      }
    </style>
    <clipPath id="clippath">
      <rect class="st2" x="58.1" y="80.1" width="334" height="118" rx="30" ry="30"/>
    </clipPath>
    <radialGradient id="radial-gradient" cx="-67.7" cy="558" fx="-67.7" fy="558" r="1" gradientTransform="translate(-28284.5 37035.9) rotate(44.7) scale(82.2 -83.1)" gradientUnits="userSpaceOnUse">
      <stop offset="0" stop-color="#fff"/>
      <stop offset="1" stop-color="#1e1e1e" stop-opacity="0"/>
      <stop offset="1" stop-color="#0e0e35" stop-opacity="0"/>
      <stop offset="1" stop-color="#fff" stop-opacity="0"/>
    </radialGradient>
  </defs>
  <g class="st4">
    <g>
      <rect class="st3" x="58.1" y="80.1" width="334" height="118" rx="30" ry="30"/>
      <path class="st5" d="M392.6,18.4c-6.8,6.7-15.2,16-17.8,26.5-.8,3.3-1.1,6.7-.6,10.2-.6,2.5-.8,5-.6,7.6,0,.2-.1.5-.2.7-.5,1.9-.8,3.8-.8,5.7-.3.9-.6,1.8-.8,2.7,0,.3-.1.6-.2.8-6.2,6.4-12.9,14.6-15.2,23.8-1.3,5.3-1.2,10.8,1.2,16.6,2.5,5.7,7.3,11.6,15.4,17.4,18.8,13.6,36.2,14.3,49.7,14.8,1.2,0,2.5,0,3.6.2,6.9.3,12.5,1,16.3,3.9,3.8,2.9,6.1,8.2,6.2,18h.6c-.1-9.8-2.4-15.3-6.4-18.4-4-3.1-9.8-3.7-16.7-4-1.2,0-2.4-.1-3.6-.2-13.4-.5-30.7-1.2-49.3-14.7-8-5.8-12.7-11.6-15.2-17.2-2.4-5.6-2.5-11.1-1.2-16.2,2.2-8.7,8.4-16.6,14.4-22.9h0c-.2.4-.3.7-.4,1-4.1,5.1-7.7,10.9-9.3,17.2-1.3,5.3-1.2,10.8,1.2,16.6,2.5,5.7,7.3,11.6,15.4,17.4,18.8,13.6,36.2,14.3,49.7,14.8,1.2,0,2.5,0,3.6.2,6.9.3,12.5,1,16.3,3.9,3.8,2.9,6.1,8.2,6.2,18h.6c-.1-9.8-2.4-15.3-6.4-18.4-4-3.1-9.8-3.7-16.7-4-1.2,0-2.4-.1-3.6-.2-13.4-.5-30.7-1.2-49.3-14.7-8-5.8-12.7-11.6-15.2-17.2-2.4-5.6-2.5-11.1-1.2-16.2,1.3-5.1,4-10,7.2-14.4-1.5,2.7-2.7,5.6-3.4,8.5-1.3,5.3-1.2,10.8,1.2,16.6,2.5,5.7,7.3,11.6,15.4,17.4,18.8,13.6,36.2,14.3,49.7,14.8h0s0,0,0,0h0c1.2,0,2.4,0,3.6.2,6.9.3,12.5,1,16.3,3.9,3.8,2.9,6.1,8.2,6.2,18h.6c-.1-9.8-2.4-15.3-6.4-18.4-4-3.1-9.8-3.7-16.7-4-1.2,0-2.4-.1-3.6-.2-13.4-.5-30.7-1.2-49.3-14.7-8-5.8-12.7-11.6-15.2-17.2-2.4-5.6-2.5-11.1-1.2-16.2.7-2.7,1.7-5.3,3-7.7,0,.3-.2.6-.2.8-1.3,5.3-1.2,10.8,1.2,16.6,2.5,5.7,7.3,11.6,15.4,17.4,18.8,13.6,36.2,14.3,49.7,14.8h0c1.2,0,2.5,0,3.6.2,6.9.3,12.5,1,16.3,3.9,3.8,2.9,6.1,8.2,6.2,18h.6c-.1-9.8-2.4-15.3-6.4-18.4-4-3.1-9.8-3.7-16.7-4-1.2,0-2.4-.1-3.6-.2-13.4-.5-30.7-1.2-49.3-14.7-8-5.8-12.7-11.6-15.2-17.2-2.4-5.6-2.5-11.1-1.2-16.2.3-1.2.7-2.4,1.2-3.6-.4,4,.2,8.1,2,12.3,2.5,5.7,7.3,11.6,15.4,17.4,18.8,13.6,36.2,14.3,49.7,14.8,1.2,0,2.5,0,3.6.2,6.9.3,12.5,1,16.3,3.9,3.8,2.9,6.1,8.2,6.2,18h.6c-.1-9.8-2.4-15.3-6.4-18.4-4-3.1-9.8-3.7-16.7-4-1.2,0-2.4-.1-3.6-.2-13.4-.5-30.7-1.2-49.3-14.7-8-5.8-12.7-11.6-15.2-17.2-2-4.6-2.4-9-1.8-13.3.3-.4.5-.8.8-1.2,0-.1.2-.2.3-.3.3,2.2.9,4.3,1.9,6.6,2.5,5.7,7.3,11.6,15.4,17.4,18.8,13.6,36.2,14.3,49.7,14.8,1.2,0,2.5,0,3.6.2,6.9.3,12.5,1,16.3,3.9,3.8,2.9,6.1,8.2,6.2,18h.6c-.1-9.8-2.4-15.3-6.4-18.4-4-3.1-9.8-3.7-16.7-4-1.2,0-2.4-.1-3.6-.2-13.4-.5-30.7-1.2-49.3-14.7-8-5.8-12.7-11.6-15.2-17.2-1-2.4-1.6-4.7-1.9-7,.7-.8,1.4-1.6,2.1-2.4,0,.2.1.3.2.5,2.5,5.7,7.3,11.6,15.4,17.4,18.8,13.6,36.2,14.3,49.7,14.8h0s0,0,0,0h0s0,0,0,0c1.2,0,2.4,0,3.6.2,6.9.3,12.5,1,16.3,3.9,3.8,2.9,6.1,8.2,6.2,18h.6c-.1-9.8-2.4-15.3-6.4-18.4-4-3.1-9.8-3.7-16.7-4-1.2,0-2.4-.1-3.6-.2-13.4-.5-30.7-1.2-49.3-14.7-8-5.8-12.7-11.6-15.2-17.2-.1-.3-.2-.5-.3-.8,1-1.1,2.1-2.2,3.1-3.2,2.8,4,6.8,8.1,12.4,12.2,18.8,13.6,36.2,14.3,49.7,14.8,1.2,0,2.5,0,3.6.2,6.9.3,12.5,1,16.3,3.9,3.8,2.9,6.1,8.2,6.2,18h.6c-.1-9.8-2.4-15.3-6.4-18.4-4-3.1-9.8-3.7-16.7-4-1.2,0-2.4-.1-3.6-.2-13.4-.5-30.7-1.2-49.3-14.7-5.6-4.1-9.6-8.1-12.4-12.1l.2-.2.2-.2-.4-.4c-.1.1-.2.2-.3.3,0,0,0-.1-.1-.2,1.8-1.9,3.5-3.8,5.2-5.4l-.4-.4c-1.6,1.6-3.4,3.4-5.1,5.3-.2-.4-.4-.7-.6-1.1,3-4,6.4-7.5,9.5-10.6l-.4-.4c-3,3-6.4,6.5-9.4,10.4-.3-.6-.6-1.2-.9-1.8,3.7-6.1,8.8-11.6,13.2-16l-.4-.4c-4.3,4.3-9.3,9.7-13.1,15.7-.3-.8-.6-1.6-.9-2.4,3.6-8.3,10.3-15.7,16-21.4l-.4-.4c-5.5,5.5-12.2,12.7-15.8,20.9-.2-.9-.4-1.8-.6-2.7,0-.2,0-.4.1-.6,2.6-10.3,10.9-19.5,17.7-26.2l-.4-.4c-6.6,6.6-14.7,15.5-17.6,25.6-.2-2.9,0-5.7.8-8.4,2.6-10.3,10.9-19.5,17.7-26.2l-.4-.4ZM372.7,72.4c0,.1-.1.3-.2.4,0-.1.1-.2.2-.3h0c0-.1,0,0,0,0ZM374.4,70.2c.2-.3.4-.5.6-.8,0-.2-.2-.5-.2-.7-.4.6-.8,1.2-1.1,1.8.2-.2.3-.3.5-.5l.2.2ZM378.7,66.2c-.6.6-1.2,1.3-1.9,1.9.6-.7,1.2-1.4,1.8-2h0c0,0,0,.1,0,.1ZM378.2,65.6c-.2-.3-.4-.7-.6-1-.8,1.1-1.7,2.3-2.4,3.5,0,.3.2.5.3.8.9-1.1,1.8-2.2,2.8-3.3ZM372.5,71.4h0s0-.2.1-.4c0,0,0,.1,0,.2h0ZM374.6,67.9c-.5.8-1,1.5-1.4,2.3,0-.3,0-.7,0-1,.3-.9.7-1.7,1-2.6.1.4.2.9.3,1.3ZM377.3,64c-.8,1.1-1.6,2.2-2.3,3.3-.1-.5-.3-1-.4-1.5.6-1.2,1.2-2.3,1.8-3.4.3.6.6,1.1.9,1.7ZM376.1,61.7c0,0,0-.1,0-.2-.3-.7-.5-1.3-.8-2-.4,1.1-.8,2.1-1.1,3.2,0,.7.1,1.3.2,2,.5-1.1,1.1-2.1,1.7-3.1ZM374,65.7c0-.4-.2-.8-.2-1.3-.2.9-.4,1.9-.5,2.8.2-.5.4-1,.7-1.5ZM375,58.7c-.3.8-.6,1.5-.9,2.3,0-1.4.1-2.9.4-4.3.1.7.3,1.3.5,2ZM350.5,99.9c2.7-10.5,11.1-19.7,17.8-26.5l.4.4c-6.8,6.7-15.1,15.9-17.7,26.2-1.3,5.2-1.2,10.6,1.2,16.2,2.4,5.6,7.2,11.4,15.2,17.2,18.6,13.5,35.9,14.1,49.3,14.7,1.2,0,2.5,0,3.6.2,6.9.3,12.6,1,16.7,4,4.1,3.1,6.3,8.6,6.4,18.4h-.6c-.1-9.8-2.4-15.1-6.2-18-3.9-2.9-9.4-3.6-16.3-3.9-1.2,0-2.4-.1-3.6-.2-13.4-.5-30.9-1.2-49.7-14.8-8.1-5.8-12.9-11.7-15.4-17.4-2.5-5.7-2.6-11.3-1.2-16.6ZM361.8,76c-6.8,6.7-15.2,16-17.8,26.5-1.3,5.3-1.2,10.8,1.2,16.6,2.5,5.7,7.3,11.6,15.4,17.4,18.8,13.6,36.2,14.3,49.7,14.8h0c1.2,0,2.5,0,3.6.2,6.9.3,12.5,1,16.3,3.9,3.8,2.9,6.1,8.2,6.2,18h.6c-.1-9.8-2.4-15.3-6.4-18.4-4-3.1-9.8-3.7-16.7-4-1.2,0-2.4-.1-3.6-.2-13.4-.5-30.7-1.2-49.3-14.7-8-5.8-12.7-11.6-15.2-17.2-2.4-5.6-2.5-11.1-1.2-16.2,2.6-10.3,10.9-19.5,17.7-26.2l-.4-.4ZM337.2,104.5c2.7-10.5,11.1-19.7,17.8-26.5l.4.4c-6.8,6.7-15.1,15.9-17.7,26.2-1.3,5.2-1.2,10.6,1.2,16.2,2.4,5.6,7.2,11.4,15.2,17.2,18.6,13.5,35.9,14.1,49.3,14.7,1.2,0,2.5,0,3.6.2,6.9.3,12.6,1,16.7,4,4.1,3.1,6.3,8.6,6.4,18.4h-.6c-.1-9.8-2.4-15.1-6.2-18-3.9-2.9-9.4-3.6-16.3-3.9-1.2,0-2.4-.1-3.6-.2-13.4-.5-30.9-1.2-49.7-14.8-8.1-5.8-12.9-11.7-15.4-17.4-2.5-5.7-2.6-11.3-1.2-16.6ZM348.1,79.6c-6.8,6.7-15.2,16-17.8,26.5-1.3,5.3-1.2,10.8,1.2,16.6,2.5,5.7,7.3,11.6,15.4,17.4,18.8,13.6,36.2,14.3,49.7,14.8,1.2,0,2.5,0,3.6.2,6.9.3,12.5,1,16.3,3.9,3.8,2.9,6.1,8.2,6.2,18h.6c-.1-9.8-2.4-15.3-6.4-18.4-4-3.1-9.8-3.7-16.7-4-1.2,0-2.4-.1-3.6-.2-13.4-.5-30.7-1.2-49.3-14.7-8-5.8-12.7-11.6-15.2-17.2-2.4-5.6-2.5-11.1-1.2-16.2,2.6-10.3,10.9-19.5,17.7-26.2l-.4-.4ZM323.2,107.4c2.7-10.5,11.1-19.7,17.8-26.5l.4.4c-6.8,6.7-15.1,15.9-17.7,26.2-1.3,5.2-1.2,10.6,1.2,16.2,2.4,5.6,7.2,11.4,15.2,17.2,18.6,13.5,35.9,14.1,49.3,14.7,1.2,0,2.5,0,3.6.2,6.9.3,12.6,1,16.7,4,4.1,3.1,6.3,8.6,6.4,18.4h-.6c-.1-9.8-2.4-15.1-6.2-18-3.9-2.9-9.4-3.6-16.3-3.9-1.2,0-2.4-.1-3.6-.2-13.4-.5-30.9-1.2-49.7-14.8-8.1-5.8-12.9-11.7-15.4-17.4-2.5-5.7-2.6-11.3-1.2-16.6ZM333.9,82.3c-6.8,6.7-15.2,16-17.8,26.5-1.3,5.3-1.2,10.8,1.2,16.6,2.5,5.7,7.3,11.6,15.4,17.4,18.8,13.6,36.2,14.3,49.7,14.8,1.2,0,2.5,0,3.6.2,6.9.3,12.5,1,16.3,3.9,3.8,2.9,6.1,8.2,6.2,18h.6c-.1-9.8-2.4-15.3-6.4-18.4-4-3.1-9.8-3.7-16.7-4-1.2,0-2.4-.1-3.6-.2-13.4-.5-30.7-1.2-49.3-14.7-8-5.8-12.7-11.6-15.2-17.2-2.4-5.6-2.5-11.1-1.2-16.2,2.6-10.3,10.9-19.5,17.7-26.2l-.4-.4ZM309,110.2c2.7-10.5,11.1-19.7,17.8-26.5l.4.4c-6.8,6.7-15.1,15.9-17.7,26.2-1.3,5.2-1.2,10.6,1.2,16.2,2.4,5.6,7.2,11.4,15.2,17.2,18.6,13.5,35.9,14.1,49.3,14.7,1.2,0,2.5,0,3.6.2,6.9.3,12.6,1,16.7,4,4.1,3.1,6.3,8.6,6.4,18.4h-.6c-.1-9.8-2.4-15.1-6.2-18-3.9-2.9-9.4-3.6-16.3-3.9-1.2,0-2.4-.1-3.6-.2-13.4-.5-30.9-1.2-49.7-14.8-8.1-5.8-12.9-11.7-15.4-17.4-2.5-5.7-2.6-11.3-1.2-16.6ZM319.8,85.3c-6.8,6.7-15.2,16-17.8,26.5-1.3,5.3-1.2,10.8,1.2,16.6,2.5,5.7,7.3,11.6,15.4,17.4,18.8,13.6,36.2,14.3,49.7,14.8h0c1.2,0,2.5,0,3.6.2,6.9.3,12.5,1,16.3,3.9,3.8,2.9,6.1,8.2,6.2,18h.6c-.1-9.8-2.4-15.3-6.4-18.4-4-3.1-9.8-3.7-16.7-4-1.2,0-2.4-.1-3.6-.2-13.4-.5-30.7-1.2-49.3-14.7-8-5.8-12.7-11.6-15.2-17.2-2.4-5.6-2.5-11.1-1.2-16.2,2.6-10.3,10.9-19.5,17.7-26.2l-.4-.4ZM295.2,113.6c2.7-10.5,11.1-19.7,17.8-26.5l.4.4c-6.8,6.7-15.1,15.9-17.7,26.2-1.3,5.2-1.2,10.6,1.2,16.2,2.4,5.6,7.2,11.4,15.2,17.2,18.6,13.5,35.9,14.1,49.3,14.7,1.2,0,2.5,0,3.6.2,6.9.3,12.6,1,16.7,4,4.1,3.1,6.3,8.6,6.4,18.4h-.6c-.1-9.8-2.4-15.1-6.2-18-3.9-2.9-9.4-3.6-16.3-3.9-1.2,0-2.4-.1-3.6-.2h0c-13.4-.5-30.9-1.2-49.7-14.8-8.1-5.8-12.9-11.7-15.4-17.4-2.5-5.7-2.6-11.3-1.2-16.6ZM306.3,89.3c-6.8,6.7-15.2,16-17.8,26.5-1.3,5.3-1.2,10.8,1.2,16.6,2.5,5.7,7.3,11.6,15.4,17.4,18.8,13.6,36.2,14.3,49.7,14.8h0c1.2,0,2.5,0,3.6.2,6.9.3,12.5,1,16.3,3.9,3.8,2.9,6.1,8.2,6.2,18h.6c-.1-9.8-2.4-15.3-6.4-18.4-4-3.1-9.8-3.7-16.7-4-1.2,0-2.4-.1-3.6-.2-13.4-.5-30.7-1.2-49.3-14.7-8-5.8-12.7-11.6-15.2-17.2-2.4-5.6-2.5-11.1-1.2-16.2,2.6-10.3,10.9-19.5,17.7-26.2l-.4-.4Z"/>
      <path class="st1" d="M79.2,105.1v-5.2l3.4,5.2h1.3v-7.3h-1.3v5.2l-3.4-5.2h-1.3v7.3h1.3ZM87.5,105.2c1.3,0,2.2-.6,2.4-1.7h-1.1c-.1.5-.6.7-1.2.7s-1.3-.4-1.4-1.3h3.7v-.4c0-1.5-.9-2.5-2.4-2.5s-2.5,1.1-2.5,2.6,1,2.6,2.5,2.6ZM87.5,101c.7,0,1.2.5,1.2,1.1h-2.5c.1-.7.6-1.1,1.3-1.1ZM91.8,105.1h1.2l.7-2.1c.2-.8.3-1.2.4-1.4,0,.2.2.7.4,1.4l.7,2.1h1.1l1.7-4.9h-1.3l-.7,2.1c0,.3-.2.9-.3,1.3,0-.3-.3-1.1-.3-1.3l-.7-2.1h-1.2l-.7,2.1c-.2.5-.2.8-.3,1.3,0-.5-.2-.9-.3-1.3l-.7-2.1h-1.3l1.6,4.9ZM102.1,105.1l.6-1.7h2.7l.6,1.7h1.3l-2.6-7.3h-1.3l-2.6,7.3h1.3ZM103.9,100c0-.2.1-.4.2-.6,0,.1,0,.4.1.6l.8,2.4h-2l.8-2.4ZM109.4,105.1v-7.4h-1.2v7.4h1.2ZM111.8,105.1v-.8c.4.6,1,.9,1.7.9,1.4,0,2.4-1,2.4-2.6s-.9-2.7-2.3-2.7-1.4.3-1.7.9v-3.2h-1.2v7.4h1.1ZM111.9,102.6c0-.9.6-1.5,1.4-1.5s1.4.6,1.4,1.5-.5,1.5-1.4,1.5-1.4-.6-1.4-1.5ZM120.1,100.2v2.6c0,.9-.4,1.4-1.1,1.4s-1.1-.4-1.1-1.3v-2.7h-1.2v3.1c0,1.2.7,2,1.8,2s1.3-.3,1.6-.8v.7h1.2v-4.9h-1.2ZM123.8,105.1v-2.8c0-.8.5-1.2,1.1-1.2s.9.4.9,1.1v2.9h1.2v-2.8c0-.8.5-1.2,1-1.2s1,.4,1,1.1v2.9h1.2v-3.2c0-1.1-.7-1.9-1.9-1.9s-1.3.4-1.6.9c-.3-.6-.8-.9-1.5-.9s-1.2.3-1.5.7v-.6h-1.2v4.9h1.2Z"/>
      <path class="st1" d="M78.2,179.1h3.8c2,0,3.1-.9,3.1-2.6s-.5-1.9-1.5-2.2c.9-.4,1.4-1.1,1.4-2.2,0-1.6-1.1-2.6-3-2.6h-3.8v9.5ZM81.8,171.1c.9,0,1.5.4,1.5,1.3s-.5,1.3-1.4,1.3h-2v-2.6h2ZM81.9,175.1c.9,0,1.5.5,1.5,1.3s-.5,1.3-1.5,1.3h-2.1v-2.6h2.1ZM87.2,171.4c.5,0,.9-.4.9-1s-.4-.9-.9-.9-1,.4-1,.9.4,1,1,1ZM86.4,179.1h1.6v-6.4h-1.6v6.4ZM91.2,179.1v-9.7h-1.6v9.7h1.6ZM94.5,179.1v-9.7h-1.6v9.7h1.6ZM96.9,171.4c.5,0,.9-.4.9-1s-.4-.9-.9-.9-1,.4-1,.9.4,1,1,1ZM96.1,179.1h1.6v-6.4h-1.6v6.4ZM102.2,179.3c1.7,0,2.8-.8,3.1-2.2h-1.5c-.2.6-.8.9-1.6.9s-1.7-.6-1.8-1.7h4.8v-.5c0-2-1.2-3.3-3.1-3.3s-3.2,1.4-3.2,3.4,1.3,3.4,3.2,3.4ZM102.2,173.8c.9,0,1.6.6,1.6,1.5h-3.2c.2-1,.7-1.5,1.7-1.5ZM116.2,179.1v-1.5h-4.2v-2.5h3.8v-1.5h-3.8v-2.4h4.2v-1.5h-5.9v9.5h5.9ZM118.6,171.4c.5,0,.9-.4.9-1s-.4-.9-.9-.9-1,.4-1,.9.4,1,1,1ZM117.8,179.1h1.6v-6.4h-1.6v6.4ZM122.6,179.1v-9.7h-1.6v9.7h1.6ZM125.1,171.4c.5,0,.9-.4.9-1s-.4-.9-.9-.9-1,.4-1,.9.4,1,1,1ZM124.3,179.1h1.6v-6.4h-1.6v6.4ZM127,177.2c0,1.3,1,2.1,2.6,2.1s2.7-.8,2.7-2.1-.5-1.5-1.6-1.7l-1.2-.3c-.5-.1-.8-.4-.8-.7s.4-.8,1-.8,1,.4,1,.9h1.5c0-1.2-1-2.1-2.4-2.1s-2.5.8-2.5,2,.6,1.6,1.7,1.8l1.2.3c.6.1.7.4.7.7,0,.5-.4.8-1.1.8s-1.1-.4-1.2-.9h-1.5ZM135.1,179.1v-3.5c0-1,.6-1.7,1.6-1.7s1.3.5,1.3,1.6v3.6h1.6v-4c0-1.7-.8-2.7-2.4-2.7s-1.7.4-2.1,1v-4.1h-1.6v9.7h1.6Z"/>
      <path class="st0" d="M81.1,130.1v-5.9h6.2v5.9h2.4v-13.9h-2.4v5.7h-6.2v-5.7h-2.4v13.9h2.4ZM95.2,130.4c1.5,0,2.7-.7,3.1-1.6l.2,1.4h2v-5.7c0-2.6-1.6-4-4.1-4s-4.2,1.3-4.2,3.4h2c0-1,.8-1.6,2.1-1.6s1.9.5,1.9,1.8v.2l-2.8.2c-2.2.2-3.5,1.3-3.5,3s1.2,2.9,3.2,2.9ZM96,128.6c-1,0-1.6-.4-1.6-1.3s.6-1.2,2-1.4l2-.2v.5c0,1.4-.9,2.3-2.3,2.3ZM102.8,134.5h2.3v-5.6c.6,1,1.8,1.5,3.2,1.5,2.8,0,4.4-2.1,4.4-5.1s-1.7-4.9-4.4-4.9-2.7.6-3.2,1.7l-.2-1.4h-2.1v13.7ZM105.2,125.4c0-1.7,1-2.9,2.6-2.9s2.6,1.2,2.6,2.9-1,2.9-2.6,2.9-2.6-1.2-2.6-2.9ZM114.6,134.5h2.3v-5.6c.6,1,1.8,1.5,3.2,1.5,2.8,0,4.4-2.1,4.4-5.1s-1.7-4.9-4.4-4.9-2.7.6-3.2,1.7l-.2-1.4h-2.1v13.7ZM116.9,125.4c0-1.7,1-2.9,2.6-2.9s2.6,1.2,2.6,2.9-1,2.9-2.6,2.9-2.6-1.2-2.6-2.9ZM127.5,118.8c.8,0,1.4-.6,1.4-1.4s-.6-1.4-1.4-1.4-1.4.6-1.4,1.4.6,1.4,1.4,1.4ZM126.3,130.1h2.3v-9.4h-2.3v9.4ZM135.3,130.4c2.5,0,4.2-1.2,4.6-3.3h-2.1c-.3.9-1.1,1.4-2.4,1.4s-2.4-.8-2.6-2.5h7.1v-.7c0-2.9-1.8-4.8-4.6-4.8s-4.7,2-4.7,5,2,4.9,4.8,4.9ZM135.2,122.3c1.4,0,2.3.9,2.3,2.1h-4.7c.2-1.4,1.1-2.1,2.4-2.1ZM147.5,120.7c-.4,0-.7-.1-1-.1-1.3,0-2.1.6-2.5,1.6v-1.4h-2.3v9.4h2.3v-4.6c0-1.8,1-2.7,2.7-2.7h.9v-2.1ZM153.3,118.5h4.1v11.6h2.4v-11.6h4.1v-2.2h-10.6v2.2ZM167.7,130.1v-5.1c0-1.4.9-2.4,2.3-2.4s2,.8,2,2.3v5.2h2.3v-5.8c0-2.4-1.2-3.9-3.5-3.9s-2.5.6-3,1.5v-6h-2.3v14.1h2.3ZM179.4,130.4c1.5,0,2.7-.7,3.1-1.6l.2,1.4h2v-5.7c0-2.6-1.6-4-4.1-4s-4.2,1.3-4.2,3.4h2c0-1,.8-1.6,2.1-1.6s1.9.5,1.9,1.8v.2l-2.8.2c-2.2.2-3.5,1.3-3.5,3s1.2,2.9,3.2,2.9ZM180.2,128.6c-1,0-1.6-.4-1.6-1.3s.6-1.2,2-1.4l2-.2v.5c0,1.4-.9,2.3-2.3,2.3ZM189.3,130.1v-5.1c0-1.5.9-2.5,2.3-2.5s2,.8,2,2.3v5.2h2.3v-5.8c0-2.4-1.2-3.9-3.6-3.9s-2.4.6-3,1.5l-.2-1.2h-2.1v9.4h2.3ZM87.3,156.1v-2.2h-6.2v-3.7h5.5v-2.1h-5.5v-3.6h6.2v-2.2h-8.6v13.9h8.6ZM91.8,156.1h2.3l3.9-9.4h-2.4l-1.7,4.3c-.4,1-.7,2-.9,2.6-.1-.5-.4-1.5-.8-2.6l-1.6-4.3h-2.5l3.7,9.4ZM103.1,156.4c2.5,0,4.2-1.2,4.6-3.3h-2.1c-.3.9-1.1,1.4-2.4,1.4s-2.4-.8-2.6-2.5h7.1v-.7c0-2.9-1.8-4.8-4.6-4.8s-4.7,2-4.7,5,2,4.9,4.8,4.9ZM103,148.3c1.4,0,2.3.9,2.3,2.1h-4.7c.2-1.4,1.1-2.1,2.4-2.1ZM115.4,146.7c-.4,0-.7-.1-1-.1-1.3,0-2.1.6-2.5,1.6v-1.4h-2.3v9.4h2.3v-4.6c0-1.8,1-2.7,2.7-2.7h.9v-2.1Z"/>
    </g>
  </g>
</svg>