<svg width="28" height="28" viewBox="0 0 28 28" fill="none" xmlns="http://www.w3.org/2000/svg">
<path fill-rule="evenodd" clip-rule="evenodd" d="M24.3214 4.5915C22.7725 3.01202 21.0483 2.52339 19.4291 2.64193C17.8537 2.75726 16.4349 3.44066 15.3986 4.098C14.5815 4.61637 13.4183 4.61637 12.6011 4.098C11.5649 3.44067 10.1461 2.75728 8.57065 2.64195C6.95144 2.52341 5.22724 3.01204 3.67842 4.5915C1.84993 6.45617 1.27626 8.75803 1.50662 11.0864C1.73433 13.388 2.74388 15.7277 4.09035 17.8008C5.4404 19.8795 7.16496 21.7458 8.89509 23.1009C10.5872 24.4262 12.4282 25.375 13.9999 25.375C15.5716 25.375 17.4127 24.4262 19.1047 23.1009C20.8348 21.7458 22.5594 19.8795 23.9095 17.8008C25.2559 15.7277 26.2655 13.388 26.4932 11.0864C26.7235 8.75803 26.1499 6.45617 24.3214 4.5915ZM16.3361 5.57575C17.2524 4.99447 18.3866 4.47293 19.5569 4.38726C20.6833 4.3048 21.8975 4.6191 23.0719 5.81675C24.4756 7.2483 24.9404 9.00652 24.7517 10.9141C24.5603 12.8486 23.6932 14.9208 22.4418 16.8476C21.194 18.7688 19.5995 20.4904 18.0256 21.7232C16.4137 22.9858 14.9658 23.625 13.9999 23.625C13.034 23.625 11.5861 22.9858 9.97418 21.7232C8.40029 20.4904 6.80577 18.7688 5.55797 16.8476C4.30658 14.9208 3.43951 12.8486 3.24812 10.9141C3.05939 9.00652 3.52415 7.2483 4.92792 5.81676C6.10232 4.61912 7.31643 4.30482 8.44288 4.38728C9.61312 4.47295 10.7473 4.99448 11.6637 5.57576C13.0531 6.45712 14.9466 6.45712 16.3361 5.57575Z" fill="#737373"/>
</svg>
