<svg width="28" height="28" viewBox="0 0 28 28" fill="none" xmlns="http://www.w3.org/2000/svg">
<path d="M11.6667 19.9146C11.1834 19.9146 10.7917 20.3064 10.7917 20.7896C10.7917 21.2729 11.1834 21.6646 11.6667 21.6646H16.3333C16.8166 21.6646 17.2083 21.2729 17.2083 20.7896C17.2083 20.3064 16.8166 19.9146 16.3333 19.9146H11.6667Z" fill="#737373"/>
<path fill-rule="evenodd" clip-rule="evenodd" d="M14.2459 1.46288C14.082 1.45687 13.918 1.45687 13.7541 1.46288C12.6721 1.50257 11.6979 1.87048 10.6297 2.48291C9.5887 3.07973 8.39025 3.95046 6.86964 5.05526L6.78698 5.11532C5.26635 6.22011 4.06788 7.09084 3.17859 7.89645C2.26604 8.72312 1.61508 9.536 1.24299 10.5527C1.18663 10.7067 1.13593 10.8628 1.091 11.0205C0.79441 12.0618 0.84325 13.102 1.09561 14.3072C1.34154 15.4817 1.79932 16.8905 2.38016 18.6781L2.41173 18.7753C2.99254 20.5629 3.45031 21.9718 3.94167 23.0665C4.4459 24.1898 5.01783 25.0601 5.86981 25.7282C5.99887 25.8294 6.1316 25.9258 6.26773 26.0173C7.16637 26.6211 8.1708 26.8961 9.39498 27.0285C10.588 27.1576 12.0693 27.1576 13.9489 27.1575H14.0511C15.9307 27.1576 17.4121 27.1576 18.605 27.0285C19.8292 26.8961 20.8336 26.6211 21.7323 26.0173C21.8684 25.9258 22.0011 25.8294 22.1302 25.7282C22.9822 25.0601 23.5541 24.1898 24.0583 23.0665C24.5497 21.9717 25.0075 20.5629 25.5883 18.7752L25.6199 18.6781C26.2007 16.8906 26.6585 15.4816 26.9044 14.3072C27.1568 13.102 27.2056 12.0618 26.909 11.0205C26.8641 10.8628 26.8134 10.7067 26.757 10.5527C26.3849 9.536 25.734 8.72312 24.8214 7.89645C23.9321 7.09083 22.7337 6.22011 21.213 5.11531L21.1303 5.05524C19.6097 3.95045 18.4113 3.07973 17.3703 2.48291C16.3021 1.87048 15.3279 1.50257 14.2459 1.46288ZM13.8182 3.21171C13.9394 3.20726 14.0606 3.20726 14.1818 3.21171C14.8765 3.23719 15.5683 3.46699 16.4999 4.0011C17.4493 4.54541 18.5721 5.35966 20.1431 6.50108C21.7141 7.6425 22.8355 8.45867 23.6465 9.1934C24.4424 9.91435 24.8747 10.5014 25.1136 11.1542C25.1553 11.268 25.1927 11.3833 25.226 11.4999C25.4164 12.1685 25.4116 12.8975 25.1916 13.9485C24.9673 15.0197 24.5398 16.3391 23.9397 18.1859C23.3396 20.0328 22.9099 21.3514 22.4618 22.3499C22.0221 23.3295 21.5974 23.9221 21.0504 24.3511C20.955 24.4258 20.8569 24.4971 20.7563 24.5647C20.1793 24.9524 19.4845 25.1732 18.4168 25.2887C17.3288 25.4064 15.9419 25.4075 14 25.4075C12.0581 25.4075 10.6712 25.4064 9.58317 25.2887C8.51556 25.1732 7.82074 24.9524 7.24376 24.5647C7.14314 24.4971 7.04504 24.4258 6.94965 24.3511C6.40262 23.9221 5.97795 23.3295 5.53822 22.3498C5.09008 21.3514 4.66037 20.0328 4.06029 18.1859C3.46021 16.3391 3.03276 15.0197 2.80846 13.9485C2.58838 12.8975 2.58363 12.1685 2.77406 11.4999C2.80726 11.3833 2.84474 11.268 2.8864 11.1542C3.1253 10.5014 3.55766 9.91435 4.3535 9.1934C5.16455 8.45867 6.2859 7.6425 7.85692 6.50108C9.42795 5.35966 10.5507 4.54541 11.5001 4.0011C12.4317 3.46699 13.1236 3.23719 13.8182 3.21171Z" fill="#737373"/>
</svg>
