<svg width="14" height="14" viewBox="0 0 14 14" fill="none" xmlns="http://www.w3.org/2000/svg">
<path d="M9.84429 3.93522C8.83392 3.35913 8.0491 2.91164 7.41172 2.62134C6.77194 2.32996 6.21659 2.1654 5.67659 2.22145C4.81955 2.31041 4.03933 2.75448 3.53088 3.44561C3.20972 3.88215 3.076 4.44245 3.01156 5.13611C2.94738 5.827 2.94738 6.72245 2.94739 7.87406V7.92206C2.94738 9.07366 2.94738 9.96912 3.01156 10.66C3.076 11.3537 3.20972 11.914 3.53088 12.3505C4.03933 13.0416 4.81954 13.4857 5.67659 13.5747C6.21659 13.6307 6.77194 13.4662 7.41172 13.1748C8.0491 12.8845 8.83391 12.437 9.84427 11.8609L9.88528 11.8375C10.8956 11.2615 11.6804 10.814 12.2538 10.4139C12.8287 10.0128 13.2526 9.61906 13.4748 9.12612C13.8271 8.34453 13.8271 7.45159 13.4748 6.67C13.2526 6.17706 12.8287 5.78335 12.2538 5.38217C11.6804 4.98214 10.8956 4.53464 9.88528 3.95859L9.84429 3.93522Z" fill="#959595"/>
</svg>
