<svg width="24" height="24" viewBox="0 0 24 24" fill="none" xmlns="http://www.w3.org/2000/svg">
<path fill-rule="evenodd" clip-rule="evenodd" d="M10.4584 0.260437C4.84923 0.260437 0.302124 4.80755 0.302124 10.4167C0.302124 16.0258 4.84923 20.5729 10.4584 20.5729C16.0675 20.5729 20.6146 16.0258 20.6146 10.4167C20.6146 4.80755 16.0675 0.260437 10.4584 0.260437ZM1.86462 10.4167C1.86462 5.67049 5.71218 1.82294 10.4584 1.82294C15.2046 1.82294 19.0521 5.67049 19.0521 10.4167C19.0521 15.1629 15.2046 19.0104 10.4584 19.0104C5.71218 19.0104 1.86462 15.1629 1.86462 10.4167Z" fill="#CFCFCF"/>
<path d="M19.3442 18.1977C19.0391 17.8926 18.5445 17.8926 18.2394 18.1977C17.9343 18.5028 17.9342 18.9974 18.2393 19.3025L22.4059 23.4692C22.711 23.7743 23.2057 23.7743 23.5108 23.4692C23.8159 23.1641 23.8159 22.6694 23.5108 22.3643L19.3442 18.1977Z" fill="#CFCFCF"/>
</svg>
